<svg aria-hidden="true" style="width:0;height:0;position:absolute;overflow:hidden" xmlns="http://www.w3.org/2000/svg"><defs><symbol id="icon-close" viewBox="0 0 32 32"><path stroke-width="2.133" d="m8.533 8.533 14.933 14.933M8.533 23.467 23.466 8.534"/></symbol><symbol id="icon-arrow-left" viewBox="0 0 32 32"><path stroke-linejoin="round" stroke-linecap="round" stroke-width="2.667" d="M25.333 16H6.666M16 25.333 6.667 16 16 6.667"/></symbol><symbol id="icon-arrow-right" viewBox="0 0 32 32"><path stroke-linejoin="round" stroke-linecap="round" stroke-width="2.667" d="M6.667 16h18.667M16 25.333 25.333 16 16 6.667"/></symbol><symbol id="icon-dots" viewBox="0 0 32 32"><path d="M5.175 12.8c.85 0 1.506.244 1.969.731.463.475.694 1.075.694 1.8 0 .712-.231 1.306-.694 1.781-.463.462-1.119.694-1.969.694-.813 0-1.456-.231-1.931-.694s-.712-1.056-.712-1.781c0-.725.231-1.325.694-1.8.462-.488 1.113-.731 1.95-.731zm10.725 0c.85 0 1.506.244 1.969.731.463.475.694 1.075.694 1.8 0 .712-.231 1.306-.694 1.781-.462.462-1.119.694-1.969.694-.813 0-1.456-.231-1.931-.694s-.712-1.056-.712-1.781c0-.725.231-1.325.694-1.8.463-.488 1.112-.731 1.95-.731zm10.725 0c.85 0 1.506.244 1.969.731.462.475.694 1.075.694 1.8 0 .712-.231 1.306-.694 1.781-.462.462-1.119.694-1.969.694-.812 0-1.456-.231-1.931-.694s-.712-1.056-.712-1.781c0-.725.231-1.325.694-1.8.462-.488 1.112-.731 1.95-.731z"/></symbol><symbol id="icon-film" viewBox="0 0 32 32"><path fill="none" stroke="#fff" stroke-width="2.667" stroke-linecap="round" stroke-linejoin="round" style="stroke:var(--color1,#fff)" d="M26.427 2.667H5.574a2.907 2.907 0 0 0-2.907 2.907v20.853a2.907 2.907 0 0 0 2.907 2.907h20.853a2.907 2.907 0 0 0 2.907-2.907V5.574a2.907 2.907 0 0 0-2.907-2.907zM9.333 2.667v26.667M22.667 2.667v26.667M2.667 16h26.667M2.667 9.333h6.667M2.667 22.667h6.667M22.667 22.667h6.667M22.667 9.333h6.667"/></symbol><symbol id="icon-heart" viewBox="0 0 32 32"><path fill="#ff6b08" style="fill:var(--color2,#ff6b08)" d="m16 30.583-2.24-2.24C5.44 20.983 0 16.023 0 9.943c0-4.96 3.84-8.8 8.8-8.8 2.72 0 5.44 1.28 7.2 3.36 1.76-2.08 4.48-3.36 7.2-3.36 4.96 0 8.8 3.84 8.8 8.8 0 6.08-5.44 11.04-13.76 18.4L16 30.583z"/></symbol><symbol id="icon-search" viewBox="0 0 32 32"><path fill="none" stroke="#fff" style="stroke:var(--color1,#fff)" stroke-linejoin="round" stroke-linecap="round" stroke-width="2.667" d="M14.667 25.333c5.891 0 10.667-4.776 10.667-10.667S20.558 3.999 14.667 3.999 4 8.775 4 14.666s4.776 10.667 10.667 10.667zM28 28.001l-5.8-5.8"/></symbol></defs></svg>